<?xml version="1.0" standalone="no"?>
<!DOCTYPE svg PUBLIC "-//W3C//DTD SVG 20010904//EN"
 "http://www.w3.org/TR/2001/REC-SVG-20010904/DTD/svg10.dtd">
<svg version="1.0" xmlns="http://www.w3.org/2000/svg"
 width="512.000000pt" height="512.000000pt" viewBox="0 0 512.000000 512.000000"
 preserveAspectRatio="xMidYMid meet">
<metadata>
Created by potrace 1.11, written by Peter Selinger 2001-2013
</metadata>
<g transform="translate(0.000000,512.000000) scale(0.100000,-0.100000)"
fill="#000000" stroke="none">
<path d="M43 2603 l2 -2518 1907 0 1908 0 0 95 c1 123 1 4899 0 4923 0 16 -98
17 -1909 17 l-1909 0 1 -2517z"/>
<path d="M4485 5106 c-37 -16 -78 -62 -92 -102 -7 -19 -10 -712 -10 -2083 l0
-2054 70 -121 c38 -67 82 -143 97 -171 15 -27 42 -75 60 -105 l33 -55 1 -183
1 -184 30 -24 c36 -30 86 -27 119 6 19 18 20 33 21 203 l1 183 36 60 c19 32
47 80 61 106 15 26 57 101 94 165 l68 118 1 2045 c1 1168 -2 2061 -7 2081 -12
48 -42 85 -88 109 -33 16 -62 19 -252 19 -159 0 -222 -3 -244 -13z"/>
</g>
</svg>
